<?xml version="1.0" encoding="UTF-8"?>
<svg width="32px" height="32px" viewBox="0 0 32 32" version="1.1" xmlns="http://www.w3.org/2000/svg" xmlns:xlink="http://www.w3.org/1999/xlink">
    <title>Combined Shape</title>
    <g id="Page-1" stroke="none" stroke-width="1" fill="none" fill-rule="evenodd">
        <path d="M16,0 C24.8,0 32,7.2 32,16 C32,24.8 24.8,32 16,32 C7.2,32 0,24.8 0,16 C0,7.2 7.2,0 16,0 Z M12.0508333,9 L6.2525,9 L6.2525,9.31727287 L8.11916667,11.4429224 C8.3025,11.5988033 8.39666667,11.8279011 8.37166667,12.060148 L8.37166667,12.060148 L8.37166667,20.4115887 C8.42583333,20.7123288 8.32583333,21.0201543 8.10083333,21.2398048 L8.10083333,21.2398048 L6,23.6472996 L6,23.9653598 L11.9566667,23.9653598 L11.9566667,23.6472996 L9.85583333,21.2398048 C9.63,21.0209416 9.52333333,20.7146906 9.56666667,20.4115887 L9.56666667,20.4115887 L9.56666667,13.1891041 L14.7958333,23.9653598 L15.4025,23.9653598 L19.8933333,13.1891041 L19.8933333,21.7783026 C19.8933333,22.0074004 19.8933333,22.051488 19.735,22.2010707 L19.735,22.2010707 L18.1191667,23.6827271 L18.1191667,24 L25.9625,24 L25.9625,23.6827271 L24.4033333,22.2364982 C24.2658333,22.1373012 24.1975,21.9743348 24.2258333,21.8137301 L24.2258333,21.8137301 L24.2258333,11.1870572 C24.1975,11.0256652 24.2658333,10.8626988 24.4033333,10.7635018 L24.4033333,10.7635018 L26,9.31727287 L26,9 L20.4725,9 L16.5325,18.2859392 L12.0508333,9 Z" id="Combined-Shape" fill="#FFFFFF" fill-rule="nonzero"></path>
    </g>
</svg>