<?xml version="1.0" encoding="UTF-8"?>
<svg width="32px" height="32px" viewBox="0 0 32 32" version="1.1" xmlns="http://www.w3.org/2000/svg" xmlns:xlink="http://www.w3.org/1999/xlink">
    <title>Combined Shape</title>
    <g id="Page-1" stroke="none" stroke-width="1" fill="none" fill-rule="evenodd">
        <path d="M16,0 C24.8,0 32,7.2 32,16 C32,24.8 24.8,32 16,32 C7.2,32 0,24.8 0,16 C0,7.2 7.2,0 16,0 Z M19.894081,8 C17.6510903,8 15.7819315,9.78461538 15.7819315,12.0615385 C15.7819315,12.3692308 15.8442368,12.6769231 15.9065421,12.9846154 C12.4797508,12.8 9.48909657,11.2 7.43302181,8.73846154 C7.05919003,9.35384615 6.87227414,10.0307692 6.87227414,10.7692308 C6.87227414,12.1846154 7.61993769,13.4153846 8.67912773,14.1538462 C7.99376947,14.1538462 7.37071651,13.9692308 6.80996885,13.6615385 L6.80996885,13.7230769 L6.80996885,13.7230769 C6.80996885,15.6923077 8.24299065,17.2923077 10.1121495,17.6615385 C9.73831776,17.7230769 9.42679128,17.7846154 9.0529595,17.7846154 C8.80373832,17.7846154 8.55451713,17.7846154 8.30529595,17.7230769 C8.80373832,19.3230769 10.3613707,20.4923077 12.105919,20.5538462 C10.7352025,21.6615385 8.92834891,22.2769231 6.99688474,22.2769231 C6.68535826,22.2769231 6.31152648,22.2769231 6,22.2153846 C7.86915888,23.3230769 10.0498442,24 12.3551402,24 C19.894081,24 24.0062305,17.8461538 24.0062305,12.4923077 L24.0062305,12 L24.0062305,12 C24.7538941,11.3846154 25.4392523,10.7076923 26,9.90769231 C25.2523364,10.2153846 24.5046729,10.4615385 23.6323988,10.5230769 C24.5046729,10.0307692 25.1277259,9.23076923 25.4392523,8.30769231 C24.6292835,8.8 23.7570093,9.10769231 22.8224299,9.29230769 C22.0747664,8.49230769 21.0155763,8 19.894081,8 Z" id="Combined-Shape" fill="#FFFFFF" fill-rule="nonzero"></path>
    </g>
</svg>