<?xml version="1.0" encoding="UTF-8"?>
<svg width="32px" height="32px" viewBox="0 0 32 32" version="1.1" xmlns="http://www.w3.org/2000/svg" xmlns:xlink="http://www.w3.org/1999/xlink">
    <title>Combined Shape</title>
    <g id="Page-1" stroke="none" stroke-width="1" fill="none" fill-rule="evenodd">
        <path d="M16,0 C24.8,0 32,7.2 32,16 C32,24.8 24.8,32 16,32 C7.2,32 0,24.8 0,16 C0,7.2 7.2,0 16,0 Z M13.2773973,9.00013739 L13.2241349,9.00027783 C12.8624834,9.00574023 10.7139404,9.10909728 8.46575342,10.7502414 C8.46575342,10.7502414 6,15.1001557 6,20.4667166 C6,20.4667166 7.43835616,22.8833356 11.2226027,23 C11.2226027,23 11.8561644,22.2500148 12.369863,21.6166939 C10.1952055,20.9833731 9.37328767,19.650066 9.37328767,19.650066 L9.85273973,19.9333938 L9.92123288,19.9833928 L9.98829909,20.020892 L10.0082763,20.0292252 L10.0753425,20.0667245 C10.5034247,20.3000532 10.9315068,20.4833829 11.3253425,20.63338 C12.0273973,20.9000414 12.8664384,21.1667028 13.8424658,21.3500325 C15.1267123,21.5833613 16.6335616,21.6666929 18.2773973,21.3666989 C19.0821918,21.2333681 19.9041096,21.0000394 20.760274,20.6500463 C21.359589,20.4333839 22.0273973,20.1167235 22.7294521,19.6667324 C22.7294521,19.6667324 21.8732877,21.0333721 19.630137,21.6500266 C20.1438356,22.2833475 20.760274,23 20.760274,23 C24.5445205,22.8833356 26,20.4667166 26,20.4667166 C26,15.1001557 23.5342466,10.7502414 23.5342466,10.7502414 C21.0684932,8.95027688 18.7226027,9.00013739 18.7226027,9.00013739 L18.4828767,9.26693731 C21.3938356,10.1335869 22.7465753,11.3835623 22.7465753,11.3835623 C20.9657534,10.433581 19.2191781,9.96692351 17.5924658,9.78359379 C16.359589,9.65026309 15.1780822,9.68359576 14.1335616,9.81692647 L13.8424658,9.85025914 C13.2431507,9.90025816 11.7876712,10.1169206 9.95547945,10.9002385 C9.32191781,11.1835662 8.94520548,11.3835623 8.94520548,11.3835623 C8.94520548,11.3835623 10.3664384,10.0669215 13.4486301,9.20027195 L13.2773973,9.00013739 Z M12.7979452,15.2168201 C13.7739726,15.2168201 14.5616438,16.050137 14.5445205,17.0667836 C14.5445205,18.0834302 13.7739726,18.9167471 12.7979452,18.9167471 C11.8390411,18.9167471 11.0513699,18.0834302 11.0513699,17.0667836 C11.0513699,16.050137 11.8219178,15.2168201 12.7979452,15.2168201 Z M19.0479452,15.2168201 C20.0239726,15.2168201 20.7945205,16.050137 20.7945205,17.0667836 C20.7945205,18.0834302 20.0239726,18.9167471 19.0479452,18.9167471 C18.0890411,18.9167471 17.3013699,18.0834302 17.3013699,17.0667836 C17.3013699,16.050137 18.0719178,15.2168201 19.0479452,15.2168201 Z" id="Combined-Shape" fill="#FFFFFF" fill-rule="nonzero"></path>
    </g>
</svg>