<?xml version="1.0" encoding="UTF-8"?>
<svg width="32px" height="32px" viewBox="0 0 32 32" version="1.1" xmlns="http://www.w3.org/2000/svg" xmlns:xlink="http://www.w3.org/1999/xlink">
    <title>social-1_round-twitter</title>
    <g id="Page-1" stroke="none" stroke-width="1" fill="none" fill-rule="evenodd">
        <path d="M16,0 C24.8,0 32,7.2 32,16 C32,24.8 24.8,32 16,32 C7.2,32 0,24.8 0,16 C0,7.2 7.2,0 16,0 Z M22.194407,9.0376112 C19.0497286,10.2016125 9.36519904,13.8353667 5.40678913,15.3001184 C5.15554485,15.3931185 4.99204857,15.6346188 5.00029838,15.8993691 C5.00929818,16.1648694 5.18779412,16.3951197 5.44503826,16.4723697 C7.22024786,17.0033704 9.55044482,17.7421212 9.55044482,17.7421212 C9.55044482,17.7421212 10.63942,21.030875 11.2071571,22.7033769 C11.2784055,22.9133771 11.4426518,23.0783773 11.6593968,23.1353774 C11.8753919,23.1916275 12.1063866,23.1323774 12.267633,22.9801272 C13.1796122,22.1191262 14.5895801,20.7878747 14.5895801,20.7878747 C14.5895801,20.7878747 17.2685192,22.752127 18.7879846,23.8343782 C19.0294791,24.0053784 19.340722,24.0481284 19.6182157,23.9431283 C19.8957094,23.8373782 20.0997047,23.6003779 20.1612033,23.3131276 C20.8129385,20.2501241 22.3939025,12.4973652 22.987139,9.71111198 C23.032138,9.50111173 22.9571397,9.28286148 22.7921434,9.14261132 C22.6271472,9.00236116 22.3984024,8.96186111 22.194407,9.0376112 Z M19.4509695,11.6296142 C19.5432174,11.5711141 19.6662146,11.5913641 19.7329631,11.6776142 C19.8004615,11.7638643 19.7892118,11.8868645 19.7082136,11.9603646 C16.9347767,14.4616174 12.0696375,18.8498725 12.0696375,18.8498725 L12.0696375,18.8498725 L11.7898938,21.4801255 L10.5306725,17.3266207 C10.5306725,17.3266207 16.2365426,13.6823665 19.4509695,11.6296142 Z" id="Combined-Shape" fill="#FFFFFF" fill-rule="nonzero"></path>
    </g>
</svg>